<svg width="3" height="3" viewBox="0 0 3 3" fill="none" xmlns="http://www.w3.org/2000/svg">
<path d="M1.02994 1.63614C0.956638 1.5464 0.902147 1.44283 0.869708 1.3316C0.837287 1.21825 0.829919 1.09921 0.848117 0.982731C0.89324 0.721057 1.03322 0.485195 1.2413 0.320232C1.33491 0.249101 1.4426 0.198738 1.55721 0.172503C1.66975 0.150181 1.78558 0.150181 1.89812 0.172503C2.02068 0.195696 2.13808 0.240732 2.24471 0.305459C2.35029 0.366445 2.44355 0.446605 2.51971 0.541821C2.59194 0.6309 2.6453 0.733743 2.67653 0.844094C2.70697 0.95509 2.71356 1.07128 2.69585 1.185C2.67499 1.31549 2.62866 1.44059 2.55948 1.55318C2.4937 1.66729 2.4065 1.76761 2.30266 1.84864C2.20959 1.91974 2.1028 1.97081 1.98903 1.99864C1.87699 2.02367 1.76107 2.02599 1.64812 2.00546C1.40422 1.95853 1.18437 1.82791 1.02653 1.63614H1.02994ZM1.72084 1.61114C1.78762 1.63023 1.85729 1.63716 1.92652 1.63159C1.99613 1.62535 2.06319 1.60234 2.12198 1.56455C2.18992 1.51988 2.24606 1.45945 2.28562 1.38841C2.32921 1.32003 2.35536 1.24199 2.36175 1.16114C2.36705 1.09147 2.35494 1.02157 2.32653 0.95773C2.29966 0.893957 2.26112 0.835761 2.21289 0.786138C2.16221 0.734466 2.10489 0.689759 2.04244 0.653186C1.97748 0.614536 1.90802 0.584003 1.83562 0.562275C1.7675 0.542022 1.69626 0.534323 1.62539 0.539549C1.55566 0.54532 1.4883 0.567517 1.4288 0.604323C1.36107 0.649717 1.305 0.710453 1.26516 0.781596C1.22157 0.84998 1.19542 0.928021 1.18903 1.00887C1.18423 1.079 1.19672 1.14923 1.22539 1.21341C1.25477 1.27808 1.29601 1.33667 1.34698 1.38614C1.45158 1.49247 1.58136 1.57065 1.72425 1.61341L1.72084 1.61114Z" fill="#F9F9FA"/>
</svg>
