<svg width="3" height="2" viewBox="0 0 3 2" fill="none" xmlns="http://www.w3.org/2000/svg">
<path d="M0.815221 0.638361C0.782122 0.668517 0.754109 0.703819 0.732265 0.742906C0.7099 0.78442 0.694542 0.829343 0.686811 0.87586C0.678274 0.924351 0.678274 0.97396 0.686811 1.02245C0.695827 1.10395 0.7247 1.18199 0.770901 1.24972C0.811865 1.30616 0.865601 1.35211 0.92772 1.38381C0.991578 1.41601 1.06101 1.43568 1.13226 1.44177C1.208 1.44931 1.28439 1.44702 1.35954 1.43495C1.43147 1.42427 1.50174 1.40441 1.56863 1.37586C1.63267 1.34886 1.69122 1.31035 1.74136 1.26222C1.79273 1.21385 1.8317 1.15383 1.85499 1.08722C1.87933 1.00969 1.8844 0.927388 1.86977 0.847451C1.8593 0.739231 1.80461 0.640135 1.71863 0.573587C1.63049 0.51254 1.52455 0.482556 1.41749 0.48836L1.3584 0.0963147C1.4616 0.0890245 1.56525 0.100969 1.66408 0.131542C1.75573 0.159739 1.84076 0.206116 1.91408 0.267905C1.98789 0.33122 2.04851 0.408446 2.09249 0.495178C2.14114 0.590633 2.1734 0.693581 2.18795 0.799724C2.2101 0.929493 2.20624 1.06237 2.17658 1.19063C2.12475 1.41947 1.97638 1.61467 1.76977 1.72586C1.66382 1.78378 1.54837 1.82227 1.42886 1.8395C1.30593 1.85896 1.18053 1.85665 1.0584 1.83268C0.944669 1.80948 0.836816 1.76348 0.741355 1.69745C0.644675 1.63035 0.563656 1.54313 0.503855 1.44177C0.388769 1.24085 0.342857 1.00769 0.373174 0.778133C0.385843 0.686796 0.414296 0.598358 0.457264 0.516769C0.543677 0.349883 0.697654 0.228191 0.879991 0.182678L0.939084 0.574725C0.893391 0.585968 0.85097 0.607762 0.815221 0.638361Z" fill="#F9F9FA"/>
</svg>
