<svg width="56" height="56" viewBox="0 0 56 56" fill="none" xmlns="http://www.w3.org/2000/svg">
<path d="M28.4811 2.17366L31.8459 0.902066C32.2211 0.760806 32.643 0.828125 32.9561 1.0782L35.7641 3.3282C35.9797 3.50067 36.2507 3.58873 36.5266 3.57593L40.1197 3.40661C40.5205 3.38785 40.9014 3.58177 41.122 3.91684L43.097 6.92366C43.2483 7.15494 43.4792 7.32273 43.7459 7.39525L47.2163 8.34411C47.6033 8.45021 47.9057 8.75256 48.0118 9.13957L48.9606 12.6089C49.0338 12.8759 49.2019 13.107 49.4334 13.2589L52.4391 15.2339C52.7742 15.454 52.9685 15.8345 52.9504 16.235L52.78 19.8282C52.7672 20.1046 52.8557 20.3761 53.0288 20.5918L55.2777 23.3987C55.5286 23.712 55.5955 24.1345 55.4538 24.51L54.1811 27.8737C54.0836 28.1322 54.0836 28.4174 54.1811 28.6759L55.4527 32.0407C55.5944 32.4163 55.527 32.8387 55.2766 33.1521L53.0277 35.9589C52.8546 36.1746 52.7661 36.4462 52.7788 36.7225L52.9493 40.3157C52.9678 40.7167 52.7734 41.0976 52.4379 41.318L49.4322 43.2918C49.2007 43.4437 49.0326 43.6748 48.9595 43.9418L48.0107 47.4112C47.9045 47.7982 47.6022 48.1005 47.2152 48.2066L43.7447 49.1555C43.4783 49.2286 43.2477 49.3962 43.0959 49.6271L41.122 52.6339C40.9014 52.969 40.5205 53.1629 40.1197 53.1441L36.5266 52.9748C36.2507 52.962 35.9797 53.05 35.7641 53.2225L32.9561 55.4714C32.643 55.7218 32.2211 55.7888 31.8459 55.6475L28.4811 54.3759C28.2226 54.2784 27.9374 54.2784 27.6788 54.3759L24.3129 55.6475C23.9377 55.7888 23.5158 55.7218 23.2027 55.4714L20.3959 53.2225C20.1799 53.0498 19.9084 52.9617 19.6322 52.9748L16.0391 53.1441C15.6383 53.1629 15.2574 52.969 15.0368 52.6339L13.0618 49.6271C12.91 49.3962 12.6793 49.2286 12.4129 49.1555L8.9436 48.2066C8.5566 48.1005 8.25425 47.7982 8.14815 47.4112L7.19928 43.9418C7.12644 43.675 6.95876 43.4439 6.72769 43.2918L3.72088 41.3168C3.38617 41.0964 3.19229 40.716 3.21065 40.3157L3.37997 36.7214C3.39309 36.4457 3.30544 36.1747 3.13338 35.9589L0.883375 33.1521C0.632935 32.8387 0.565544 32.4163 0.707239 32.0407L1.97883 28.6759C2.07637 28.4174 2.07637 28.1322 1.97883 27.8737L0.706103 24.5089C0.564408 24.1333 0.631361 23.7109 0.882239 23.3975L3.13338 20.5907C3.30611 20.3748 3.39419 20.1033 3.3811 19.8271L3.21178 16.2339C3.19302 15.8332 3.38694 15.4522 3.72201 15.2316L6.72883 13.2566C6.95968 13.1048 7.12733 12.8742 7.20042 12.6077L8.14928 9.13843C8.25539 8.75143 8.55774 8.44908 8.94474 8.34297L12.4141 7.39411C12.6805 7.32102 12.9111 7.15337 13.0629 6.92252L15.0379 3.9157C15.2585 3.58063 15.6395 3.38671 16.0402 3.40548L19.6334 3.57479C19.9091 3.58792 20.1801 3.50027 20.3959 3.3282L23.2027 1.0782C23.5158 0.826938 23.9383 0.75955 24.3141 0.90093L27.6788 2.17252C27.9371 2.27116 28.2226 2.27157 28.4811 2.17366Z" fill="#F2E704"/>
</svg>
