<svg width="3" height="3" viewBox="0 0 3 3" fill="none" xmlns="http://www.w3.org/2000/svg">
<path d="M1.51519 1.79535C1.54409 1.83033 1.58117 1.85765 1.62314 1.87489C1.6677 1.89266 1.71498 1.90265 1.76291 1.90444C1.81593 1.90663 1.86901 1.90204 1.92087 1.8908C1.95955 1.88331 1.99756 1.87267 2.03451 1.85898C2.07319 1.84619 2.10962 1.8274 2.14246 1.8033C2.17408 1.78163 2.20017 1.75282 2.2186 1.71921C2.23667 1.68423 2.2419 1.64401 2.23337 1.60557C2.22579 1.5626 2.20013 1.52494 2.16292 1.50216C2.12027 1.47754 2.07314 1.46171 2.02428 1.45557C1.96301 1.44579 1.9011 1.44047 1.83905 1.43966C1.77201 1.43966 1.70269 1.43966 1.63223 1.43171C1.56147 1.42932 1.4909 1.42287 1.42087 1.41239C1.35468 1.403 1.29007 1.38465 1.22883 1.35784C1.17078 1.33086 1.11894 1.29217 1.07655 1.24421C1.03077 1.18915 1.00055 1.12284 0.989051 1.05216C0.970647 0.971887 0.974977 0.88807 1.00155 0.810117C1.0288 0.737129 1.07143 0.670858 1.12655 0.615799C1.18479 0.557362 1.25288 0.509662 1.32769 0.474891C1.40339 0.437732 1.48361 0.410606 1.56633 0.394207C1.65891 0.374409 1.7535 0.365638 1.84814 0.368073C1.93492 0.36951 2.02074 0.386444 2.10155 0.418073C2.26543 0.480936 2.38328 0.626512 2.41064 0.79989L2.02201 0.878299C2.01132 0.834102 1.99072 0.792913 1.96178 0.757845C1.93624 0.728979 1.90379 0.707081 1.86746 0.694209C1.82873 0.680965 1.78792 0.674806 1.74701 0.676026C1.70044 0.676738 1.65404 0.681683 1.60837 0.6908C1.57572 0.697713 1.54377 0.707604 1.51292 0.720346C1.48288 0.733006 1.45521 0.750681 1.4311 0.772618C1.40852 0.792701 1.39066 0.817537 1.37882 0.845344C1.36626 0.875947 1.36349 0.909689 1.37087 0.941935C1.37529 0.97122 1.38835 0.99852 1.40837 1.02034C1.43462 1.04232 1.46651 1.0565 1.50041 1.06126C1.55889 1.07261 1.61816 1.07945 1.67769 1.08171L1.9686 1.09194C2.00496 1.09194 2.05382 1.09194 2.1186 1.09875C2.18591 1.10408 2.25211 1.119 2.31519 1.14307C2.38394 1.16812 2.44694 1.20677 2.50042 1.25671C2.56114 1.31871 2.60088 1.3982 2.61405 1.48398C2.63095 1.5588 2.63095 1.63644 2.61405 1.71126C2.59273 1.7874 2.5538 1.85746 2.50042 1.9158C2.439 1.98272 2.36581 2.0378 2.2845 2.0783C2.18346 2.13082 2.07561 2.16907 1.96405 2.19194C1.86543 2.21228 1.76465 2.2203 1.66405 2.2158C1.57027 2.21312 1.4778 2.19309 1.39132 2.15671C1.30965 2.12261 1.23722 2.06965 1.17996 2.00216C1.11973 1.92613 1.08054 1.83561 1.06632 1.73966L1.45496 1.66012C1.46361 1.70946 1.4843 1.75591 1.51519 1.79535Z" fill="#F9F9FA"/>
</svg>
