<svg width="3" height="3" viewBox="0 0 3 3" fill="none" xmlns="http://www.w3.org/2000/svg">
<path d="M1.07653 1.70778C1.08286 1.75287 1.10001 1.79576 1.12653 1.83278C1.15525 1.87127 1.1902 1.90468 1.22994 1.93164C1.27398 1.96089 1.32127 1.98491 1.37085 2.00323C1.40805 2.01615 1.446 2.02678 1.48449 2.03505C1.52427 2.04461 1.56527 2.04805 1.60608 2.04528C1.64584 2.04317 1.68464 2.0323 1.71972 2.01346C1.75367 1.99292 1.77939 1.96117 1.79244 1.92369C1.81068 1.88362 1.81068 1.83762 1.79244 1.79755C1.76876 1.75418 1.73715 1.71564 1.69926 1.68392C1.65244 1.64251 1.60269 1.60453 1.5504 1.57028C1.49358 1.53392 1.43676 1.49528 1.37881 1.45664C1.31681 1.41801 1.25757 1.3751 1.20154 1.32823C1.14975 1.28558 1.10423 1.23585 1.06631 1.18051C1.0307 1.1271 1.00705 1.06663 0.996989 1.00324C0.986719 0.932554 0.995344 0.860409 1.02199 0.794141C1.04882 0.716257 1.09683 0.647393 1.16063 0.595278C1.22185 0.547221 1.29282 0.513098 1.36858 0.495281C1.4489 0.476006 1.53198 0.471005 1.61404 0.480507C1.69831 0.488916 1.78117 0.508009 1.86063 0.537326C1.94918 0.569305 2.03381 0.611241 2.1129 0.662326C2.18596 0.709501 2.25019 0.769113 2.30267 0.838461C2.35171 0.905656 2.38404 0.983562 2.39699 1.06573C2.41044 1.15525 2.39944 1.24673 2.36517 1.33051L1.99245 1.19301C2.0068 1.14985 2.01107 1.10398 2.00495 1.05892C1.9987 1.02097 1.98264 0.985323 1.95835 0.955507C1.93309 0.923607 1.90182 0.896968 1.86631 0.877097C1.82603 0.852767 1.78339 0.832588 1.73903 0.81687C1.70767 0.805616 1.67534 0.797247 1.64244 0.79187C1.61055 0.78562 1.57775 0.78562 1.54585 0.79187C1.51604 0.797029 1.48772 0.808665 1.4629 0.825959C1.43599 0.845277 1.41606 0.872784 1.40608 0.904369C1.39396 0.931461 1.39077 0.961711 1.39699 0.990734C1.40752 1.02332 1.42678 1.0524 1.45267 1.07482C1.49682 1.11608 1.54391 1.15406 1.59358 1.18846C1.65494 1.23051 1.73563 1.28505 1.83563 1.35096C1.86631 1.36914 1.90722 1.39755 1.95949 1.43505C2.01438 1.47453 2.06303 1.52203 2.10381 1.57596C2.14895 1.63372 2.18147 1.7003 2.19926 1.77141C2.21911 1.85519 2.21196 1.94309 2.17881 2.02255C2.15219 2.09492 2.10989 2.1605 2.05494 2.2146C1.99794 2.2674 1.92949 2.3063 1.85494 2.32823C1.76791 2.3533 1.67693 2.36178 1.58676 2.35323C1.47378 2.34342 1.36279 2.3174 1.25722 2.27596C1.16252 2.24179 1.07243 2.19599 0.989036 2.1396C0.910578 2.08785 0.842064 2.02241 0.786763 1.94642C0.735938 1.87394 0.702497 1.79072 0.689036 1.70323C0.676389 1.60651 0.689319 1.50817 0.726536 1.41801L1.09926 1.55551C1.07836 1.60336 1.07052 1.6559 1.07653 1.70778Z" fill="#F9F9FA"/>
</svg>
