<svg width="3" height="2" viewBox="0 0 3 2" fill="none" xmlns="http://www.w3.org/2000/svg">
<path d="M0.840195 0.487293C0.867853 0.389653 0.913312 0.297962 0.974285 0.216838C1.02273 0.153691 1.0839 0.101425 1.15383 0.0634284C1.21733 0.0308229 1.28708 0.0122245 1.35838 0.00888519C1.50094 0.00423098 1.64095 0.0474342 1.7561 0.131611C1.81397 0.17403 1.86171 0.228753 1.89588 0.291839C1.93237 0.362394 1.95366 0.439818 1.95838 0.519111C1.96299 0.620477 1.94873 0.721817 1.91633 0.817976L1.79247 1.22479L2.39361 1.41002L2.27315 1.80207L0.592468 1.28275L0.840195 0.487293ZM1.59701 0.838429C1.61022 0.794851 1.62047 0.750434 1.62769 0.705477C1.63456 0.665237 1.63456 0.624124 1.62769 0.583885C1.61845 0.546979 1.60008 0.512987 1.57428 0.485022C1.50378 0.42177 1.40905 0.392684 1.31519 0.405475C1.27808 0.413545 1.24389 0.431622 1.21633 0.457747C1.1868 0.485948 1.1629 0.519495 1.14588 0.55661C1.126 0.597311 1.10928 0.639482 1.09588 0.682748L1.00269 0.98843L1.50497 1.14184L1.59701 0.838429Z" fill="#F9F9FA"/>
</svg>
