<svg width="3" height="3" viewBox="0 0 3 3" fill="none" xmlns="http://www.w3.org/2000/svg">
<path d="M0.66181 1.64073C0.655033 1.68578 0.659323 1.7318 0.67431 1.77482C0.689531 1.82029 0.713461 1.86236 0.744764 1.89869C0.777517 1.94136 0.815721 1.97957 0.858401 2.01232C0.890068 2.03547 0.923082 2.05672 0.957265 2.07596C0.992927 2.09588 1.03117 2.1108 1.0709 2.12028C1.10823 2.12938 1.14721 2.12938 1.18454 2.12028C1.22292 2.11113 1.25654 2.08804 1.27885 2.0555C1.30607 2.02126 1.31725 1.97697 1.30954 1.93391C1.29938 1.88563 1.28009 1.83973 1.25272 1.79868C1.21883 1.7465 1.18083 1.6971 1.13908 1.65096C1.0959 1.59982 1.05158 1.54641 1.0084 1.49073C0.962377 1.43669 0.919864 1.37976 0.881127 1.32028C0.844189 1.2647 0.815125 1.20428 0.794764 1.14073C0.775532 1.07943 0.76972 1.01471 0.77772 0.950958C0.788421 0.880124 0.817844 0.813432 0.862947 0.757775C0.910647 0.690471 0.976448 0.638068 1.05272 0.60664C1.12491 0.578075 1.20249 0.565662 1.27999 0.570276C1.36211 0.575227 1.4428 0.594057 1.51863 0.62596C1.59679 0.658779 1.67079 0.700735 1.73908 0.750957C1.81453 0.8076 1.88351 0.872386 1.94476 0.944141C2.00193 1.01141 2.04658 1.08839 2.07658 1.17141C2.10363 1.24865 2.11295 1.33099 2.10386 1.41232C2.09017 1.50168 2.05335 1.58591 1.99704 1.65664L1.67999 1.41801C1.70571 1.38055 1.72278 1.33786 1.72999 1.293C1.73449 1.25439 1.72902 1.21526 1.71408 1.17937C1.69829 1.14167 1.67598 1.10705 1.64817 1.0771C1.61691 1.04266 1.58226 1.01144 1.54477 0.983914C1.51799 0.963954 1.48947 0.946456 1.45954 0.931639C1.43004 0.918088 1.3986 0.90927 1.36636 0.905505C1.33612 0.902144 1.30553 0.905241 1.27658 0.914594C1.24525 0.925672 1.21821 0.946352 1.19931 0.973687C1.18086 0.996573 1.16907 1.02409 1.16522 1.05323C1.16672 1.08757 1.17731 1.12091 1.1959 1.14982C1.2265 1.20094 1.26108 1.24958 1.29931 1.29528L1.48454 1.52255C1.5084 1.54869 1.54022 1.58732 1.57886 1.63619C1.62028 1.68995 1.65323 1.74973 1.67658 1.81346C1.70378 1.88166 1.71618 1.95487 1.71295 2.02823C1.70753 2.11398 1.67534 2.19586 1.6209 2.26232C1.52804 2.3899 1.37984 2.46548 1.22204 2.46573C1.13131 2.46482 1.04153 2.4471 0.957265 2.41346C0.852146 2.3714 0.753454 2.31479 0.664083 2.24528C0.58332 2.18491 0.510072 2.1151 0.445902 2.03732C0.386082 1.96501 0.33953 1.88268 0.308401 1.79414C0.280336 1.71043 0.272165 1.62133 0.284537 1.53391C0.298174 1.4378 0.337426 1.34713 0.398173 1.27141L0.716355 1.51005C0.687967 1.54861 0.66926 1.59343 0.66181 1.64073Z" fill="#F9F9FA"/>
</svg>
