<svg width="6" height="5" viewBox="0 0 6 5" fill="none" xmlns="http://www.w3.org/2000/svg">
<path d="M4.67429 1.94646C4.85078 2.12262 4.99195 2.3309 5.0902 2.56009C5.16697 2.74178 5.20342 2.93796 5.19702 3.13509C5.18892 3.31366 5.14159 3.48825 5.05838 3.64646C4.89174 3.96539 4.62395 4.21999 4.29702 4.37032C4.13415 4.44646 3.95634 4.48528 3.77656 4.48399C3.57957 4.47984 3.38578 4.43333 3.20838 4.34759C2.9843 4.23795 2.78332 4.08635 2.61634 3.901L1.88338 3.13509L0.732245 4.22828L0.0390625 3.49873L3.24929 0.44873L4.67429 1.94646ZM2.96975 3.18169C3.04656 3.26349 3.12937 3.33946 3.21747 3.40896C3.29584 3.47136 3.38528 3.5184 3.48111 3.54759C3.573 3.57262 3.6699 3.57262 3.76179 3.54759C3.8754 3.51372 3.97835 3.4511 4.06066 3.36578C4.14952 3.28772 4.21715 3.18842 4.25725 3.07714C4.28532 2.98615 4.28923 2.88942 4.26861 2.79646C4.24414 2.69931 4.20175 2.60759 4.14361 2.526C4.07983 2.4344 4.00917 2.34779 3.93225 2.26691L3.39361 1.69873L2.43111 2.60782L2.96975 3.18169Z" fill="white"/>
</svg>
