<svg width="3" height="3" viewBox="0 0 3 3" fill="none" xmlns="http://www.w3.org/2000/svg">
<path d="M0.184541 1.37587C0.155705 1.2646 0.149521 1.14867 0.166359 1.03496C0.184031 0.918508 0.226672 0.807255 0.29136 0.708824C0.441246 0.48904 0.667078 0.332411 0.925449 0.269048C1.04045 0.244627 1.15931 0.244627 1.27431 0.269048C1.38736 0.294638 1.49429 0.342124 1.58908 0.408822C1.69105 0.480335 1.77889 0.570107 1.84818 0.673597C1.91873 0.77317 1.97035 0.884879 2.00045 1.00314C2.02959 1.11441 2.03501 1.23056 2.01636 1.34405C1.99804 1.45945 1.95502 1.56954 1.89022 1.66678C1.81691 1.77652 1.72269 1.87074 1.61295 1.94405C1.50596 2.02109 1.38464 2.07595 1.25613 2.10541C1.14235 2.13222 1.02414 2.13416 0.909542 2.1111C0.797075 2.08834 0.690622 2.04227 0.597042 1.97587C0.496582 1.90645 0.409885 1.81898 0.34136 1.71791C0.268939 1.61426 0.215815 1.49839 0.184541 1.37587ZM0.823177 1.64064C0.876091 1.68623 0.936959 1.72167 1.00272 1.74519C1.06835 1.76798 1.13843 1.77499 1.20727 1.76564C1.36854 1.73651 1.50938 1.63916 1.59363 1.49859C1.62641 1.43726 1.64468 1.36923 1.64704 1.29973C1.64773 1.22998 1.63579 1.16069 1.61181 1.09519C1.58696 1.02675 1.55335 0.961809 1.51181 0.902003C1.46884 0.840053 1.41846 0.783578 1.36181 0.733824C1.30863 0.685195 1.24701 0.646685 1.18 0.620187C1.1142 0.596436 1.04361 0.589027 0.974315 0.598596C0.813042 0.627726 0.672197 0.725069 0.587949 0.865639C0.554922 0.927221 0.537007 0.995773 0.53567 1.06564C0.535318 1.13704 0.548028 1.2079 0.573179 1.27473C0.600045 1.34527 0.635134 1.41241 0.677723 1.47473C0.719516 1.53556 0.768338 1.59125 0.823177 1.64064Z" fill="#F9F9FA"/>
</svg>
