<svg width="3" height="3" viewBox="0 0 3 3" fill="none" xmlns="http://www.w3.org/2000/svg">
<path d="M2.09249 1.75785C2.10953 1.71629 2.11915 1.67206 2.1209 1.62717C2.12203 1.5803 2.11589 1.53353 2.10272 1.48853C2.08854 1.44118 2.06707 1.39632 2.03908 1.35558C1.99408 1.28792 1.93373 1.23185 1.86295 1.19194C1.80108 1.15978 1.73265 1.14229 1.66295 1.14081C1.5915 1.14104 1.52067 1.15412 1.45386 1.17944C1.38344 1.20629 1.31664 1.24179 1.25499 1.28512C1.19561 1.32659 1.14177 1.37547 1.09477 1.43058C1.04932 1.4836 1.0139 1.54443 0.99022 1.61012C0.967328 1.67612 0.96032 1.74659 0.969766 1.81581C0.982777 1.89603 1.01472 1.97199 1.06295 2.0374C1.11907 2.12889 1.21025 2.19338 1.31522 2.21581C1.42133 2.2316 1.52968 2.21161 1.62317 2.15899L1.85045 2.48399C1.76087 2.53585 1.66273 2.57126 1.56068 2.58853C1.46609 2.60328 1.36951 2.59903 1.27658 2.57603C1.18212 2.55246 1.09328 2.51035 1.01522 2.45217C0.929843 2.38893 0.855376 2.31216 0.794765 2.2249C0.71795 2.11694 0.663121 1.99493 0.633402 1.8658C0.607381 1.75158 0.605061 1.63323 0.626584 1.51808C0.649625 1.40589 0.695247 1.29957 0.760675 1.20558C0.830362 1.10503 0.917771 1.018 1.01863 0.948762C1.12162 0.875911 1.2372 0.822743 1.35954 0.791943C1.47057 0.761846 1.58661 0.754884 1.70045 0.771489C1.81713 0.788934 1.92873 0.831169 2.02772 0.895352C2.13775 0.967766 2.23237 1.06122 2.30613 1.17035C2.36334 1.2507 2.40816 1.33919 2.43908 1.43285C2.46782 1.52043 2.48128 1.6123 2.47886 1.70444C2.47671 1.79389 2.45661 1.882 2.41977 1.96353C2.3792 2.05052 2.32073 2.12797 2.24817 2.19081L2.0209 1.86467C2.05249 1.8349 2.07696 1.79839 2.09249 1.75785Z" fill="#F9F9FA"/>
</svg>
