<svg width="3" height="3" viewBox="0 0 3 3" fill="none" xmlns="http://www.w3.org/2000/svg">
<path d="M1.65271 1.26685C1.62663 1.23015 1.59478 1.19792 1.55839 1.1714C1.51969 1.14468 1.47716 1.12399 1.43225 1.11004C1.38519 1.09552 1.33602 1.08899 1.2868 1.09072C1.20578 1.09013 1.12584 1.10924 1.05385 1.1464C0.992133 1.17986 0.939484 1.22783 0.900436 1.28617C0.86121 1.34578 0.833105 1.412 0.817481 1.48163C0.801378 1.55627 0.794131 1.63256 0.79589 1.7089C0.798172 1.78156 0.809237 1.85367 0.828844 1.92367C0.848059 1.99069 0.879666 2.05352 0.922027 2.1089C0.964364 2.16406 1.01879 2.20876 1.08112 2.23958C1.15522 2.27306 1.23628 2.28826 1.31748 2.2839C1.42603 2.28808 1.53142 2.24691 1.60839 2.17026C1.67983 2.0901 1.72295 1.98869 1.73112 1.88163L2.12771 1.8714C2.12122 1.97501 2.0962 2.07662 2.05384 2.1714C1.97336 2.34868 1.82393 2.48538 1.64021 2.54981C1.53934 2.58687 1.43289 2.60647 1.32544 2.60776C1.19397 2.61272 1.06279 2.59227 0.939071 2.54754C0.829355 2.5072 0.729433 2.44407 0.645889 2.36231C0.564602 2.28144 0.500784 2.18475 0.45839 2.07822C0.413386 1.96451 0.389138 1.84366 0.386799 1.7214C0.382279 1.59729 0.399982 1.47337 0.439072 1.35549C0.47656 1.24554 0.535243 1.144 0.6118 1.05663C0.690912 0.969344 0.787775 0.89999 0.895891 0.853216C1.01667 0.800235 1.14696 0.772397 1.27884 0.771398C1.37733 0.768636 1.47569 0.78012 1.57089 0.805491C1.65953 0.829415 1.74362 0.86781 1.81975 0.919127C1.97416 1.0263 2.07578 1.19401 2.0993 1.38049L1.70271 1.39072C1.69486 1.34639 1.67783 1.3042 1.65271 1.26685Z" fill="#F9F9FA"/>
</svg>
