<svg width="3" height="3" viewBox="0 0 3 3" fill="none" xmlns="http://www.w3.org/2000/svg">
<path d="M2.02996 0.875962C2.09995 0.889659 2.16574 0.919635 2.222 0.963465C2.28564 1.0138 2.33597 1.07895 2.3686 1.15324C2.41129 1.25877 2.42955 1.3726 2.422 1.48619C2.42111 1.56315 2.40964 1.63962 2.38792 1.71346C2.36768 1.78361 2.33411 1.8492 2.28905 1.90665C2.2434 1.96424 2.18507 2.01052 2.1186 2.04187C2.04109 2.07764 1.95616 2.09439 1.87087 2.09074H1.7186L1.72541 1.72028H1.80382C1.84186 1.72095 1.87989 1.71829 1.91746 1.71233C1.95054 1.70687 1.98222 1.69489 2.01064 1.6771C2.03649 1.65892 2.05755 1.63474 2.07201 1.60664C2.08764 1.57079 2.09576 1.53212 2.09587 1.49301C2.09985 1.44943 2.09117 1.40563 2.07087 1.36687C2.05536 1.33877 2.03155 1.31614 2.00269 1.3021C1.97335 1.28812 1.94183 1.27928 1.9095 1.27596C1.87541 1.27596 1.8436 1.27596 1.81178 1.27028L0.627686 1.24983L0.634503 0.8396L1.83678 0.861191C1.90149 0.860247 1.96615 0.86519 2.02996 0.875962Z" fill="#F9F9FA"/>
</svg>
