<svg width="3" height="3" viewBox="0 0 3 3" fill="none" xmlns="http://www.w3.org/2000/svg">
<path d="M1.62657 0.604348C1.72836 0.656249 1.82089 0.724591 1.90043 0.80662C1.974 0.884432 2.03017 0.977016 2.0652 1.07821C2.09991 1.18164 2.11117 1.29149 2.09816 1.3998C2.08395 1.52862 2.04538 1.65357 1.98452 1.76799C1.93046 1.87529 1.85991 1.97346 1.77543 2.0589C1.69936 2.13656 1.60753 2.19701 1.50611 2.23617C1.40428 2.27441 1.29513 2.28917 1.18679 2.27935C1.05982 2.26665 0.936819 2.22797 0.825429 2.16571L0.110657 1.79753L0.915202 0.237305L1.62657 0.604348ZM0.944747 1.86344C0.996777 1.89038 1.05279 1.9088 1.11066 1.91799C1.1687 1.92782 1.22825 1.92392 1.28452 1.90662C1.34678 1.88689 1.40385 1.8535 1.45157 1.80889C1.51299 1.75215 1.56311 1.68429 1.59929 1.6089C1.63751 1.53719 1.66617 1.46078 1.68452 1.38162C1.69989 1.31469 1.69989 1.24515 1.68452 1.17821C1.66936 1.1108 1.63685 1.04851 1.5902 0.997532C1.53029 0.937045 1.4603 0.887441 1.38338 0.85094L1.12316 0.71685L0.616338 1.70094L0.944747 1.86344Z" fill="#F9F9FA"/>
</svg>
