<svg width="5" height="6" viewBox="0 0 5 6" fill="none" xmlns="http://www.w3.org/2000/svg">
<path d="M1.3084 0.840748C1.45923 0.641907 1.64669 0.473737 1.86068 0.345293C2.03077 0.245444 2.22022 0.183068 2.41636 0.162339C2.59462 0.14591 2.77431 0.169195 2.94249 0.23052C3.11102 0.290873 3.26815 0.379236 3.40727 0.491884C3.54652 0.603512 3.66665 0.737079 3.76295 0.887338C3.85985 1.03858 3.92231 1.20927 3.9459 1.38734C3.9684 1.58357 3.94864 1.78234 3.88795 1.97029C3.80886 2.2067 3.68587 2.42607 3.52545 2.61688L2.86409 3.44188L4.10272 4.43507L3.47318 5.22029L0.0163574 2.45211L1.3084 0.840748ZM2.76181 2.35893C2.8316 2.2718 2.89466 2.17948 2.95045 2.08279C3.00179 1.99656 3.03612 1.90128 3.05159 1.80211C3.06506 1.70793 3.0533 1.61185 3.01749 1.5237C2.90931 1.31169 2.71516 1.15645 2.48454 1.09757C2.38958 1.08079 2.29186 1.08982 2.20159 1.1237C2.10868 1.16111 2.02352 1.21544 1.95045 1.28393C1.86874 1.35962 1.79277 1.44128 1.72318 1.52825L1.23454 2.13961L2.26977 2.96916L2.76181 2.35893Z" fill="white"/>
</svg>
