<svg width="5" height="6" viewBox="0 0 5 6" fill="none" xmlns="http://www.w3.org/2000/svg">
<path d="M1.69476 3.97808C1.73358 4.08457 1.79705 4.18037 1.87999 4.25763C1.96768 4.33681 2.06892 4.39955 2.17885 4.44285C2.29925 4.49106 2.42524 4.52389 2.55385 4.54058C2.64991 4.55333 2.74673 4.55941 2.84363 4.55876C2.94408 4.55901 3.04401 4.54446 3.14022 4.51558C3.23134 4.48823 3.3152 4.44086 3.38567 4.37694C3.45765 4.30773 3.50241 4.21499 3.51181 4.11558C3.53141 4.00766 3.50321 3.89655 3.43454 3.81103C3.35586 3.71763 3.25976 3.64044 3.15158 3.58376C3.01787 3.51166 2.87927 3.44901 2.73681 3.39626C2.58113 3.33717 2.42431 3.27353 2.26522 3.20535C2.10337 3.14227 1.9455 3.06941 1.79249 2.98717C1.64597 2.91023 1.51126 2.81264 1.39249 2.6974C1.27837 2.58711 1.18958 2.45334 1.13226 2.30535C1.07131 2.13581 1.05527 1.95339 1.08567 1.77581C1.10736 1.56902 1.18604 1.37232 1.31295 1.20763C1.43409 1.0563 1.58692 0.933338 1.76067 0.847399C1.94253 0.757236 2.13859 0.699185 2.34022 0.675808C2.54656 0.64908 2.75548 0.64908 2.96181 0.675808C3.19201 0.705813 3.41783 0.763031 3.63454 0.846262C3.83529 0.92138 4.02055 1.03269 4.18113 1.17467C4.3323 1.31013 4.44914 1.47955 4.52204 1.66899C4.59945 1.88318 4.62019 2.11374 4.58226 2.33831L3.61635 2.20535C3.62939 2.09008 3.61538 1.97336 3.57545 1.86444C3.54088 1.77553 3.48369 1.69719 3.40954 1.63717C3.33105 1.57479 3.24219 1.52671 3.14704 1.49513C3.03814 1.4583 2.92584 1.43241 2.81181 1.41785C2.73086 1.40685 2.64903 1.4038 2.56749 1.40876C2.48909 1.41409 2.4122 1.43293 2.34022 1.46444C2.27115 1.4959 2.20897 1.5407 2.15726 1.59626C2.10327 1.66067 2.07 1.73989 2.06181 1.82353C2.04859 1.8962 2.05648 1.97113 2.08454 2.03944C2.1268 2.11346 2.18901 2.1741 2.26408 2.21444C2.39017 2.28892 2.52203 2.35314 2.6584 2.40649C2.82772 2.47581 3.05044 2.56444 3.32431 2.6724C3.40613 2.70081 3.51976 2.74626 3.66522 2.8099C3.81756 2.87857 3.95917 2.9689 4.08567 3.07808C4.22445 3.1971 4.33738 3.34329 4.41749 3.50763C4.50691 3.70384 4.53465 3.92258 4.49704 4.1349C4.47194 4.32831 4.40443 4.5138 4.29931 4.67808C4.19239 4.84128 4.0483 4.97681 3.87885 5.07353C3.68394 5.18335 3.4699 5.25508 3.24817 5.2849C2.97232 5.32186 2.69259 5.31918 2.41749 5.27694C2.17202 5.24367 1.93158 5.18032 1.70158 5.08831C1.48602 5.00334 1.288 4.87929 1.11749 4.7224C0.955942 4.57232 0.832125 4.38621 0.756127 4.17922C0.675244 3.94762 0.65567 3.69903 0.699309 3.45763L1.66522 3.59058C1.64244 3.72018 1.6526 3.85343 1.69476 3.97808Z" fill="white"/>
</svg>
