<svg width="3" height="3" viewBox="0 0 3 3" fill="none" xmlns="http://www.w3.org/2000/svg">
<path d="M0.952716 1.96342C0.848382 1.91274 0.755559 1.84119 0.67999 1.7532C0.603276 1.66404 0.546685 1.55939 0.514078 1.44638C0.477959 1.3194 0.467911 1.18643 0.484535 1.05547C0.496777 0.92337 0.53542 0.795079 0.598171 0.678197C0.654527 0.57498 0.73196 0.484768 0.825444 0.413422C0.918285 0.343814 1.02417 0.293579 1.13681 0.265696C1.2579 0.235827 1.38334 0.227747 1.50726 0.241833C1.62867 0.253635 1.7469 0.287522 1.85612 0.34183C1.95881 0.392563 2.05006 0.463711 2.12431 0.550921C2.1996 0.640354 2.25465 0.745024 2.28567 0.85774C2.3213 0.984802 2.33135 1.11768 2.31522 1.24865C2.302 1.3802 2.26341 1.50793 2.20158 1.62479C2.14537 1.72874 2.06794 1.81973 1.97431 1.89183C1.88325 1.96092 1.77933 2.01114 1.66862 2.03956C1.55039 2.07032 1.42746 2.0788 1.30612 2.06456C1.18322 2.05227 1.06352 2.01802 0.952716 1.96342ZM1.56862 1.65206C1.63784 1.64251 1.70458 1.61975 1.76522 1.58501C1.82611 1.55068 1.87762 1.5019 1.91522 1.44297C1.9578 1.37419 1.9835 1.29631 1.99022 1.21569C2.00124 1.1353 1.99266 1.05343 1.96522 0.977057C1.94065 0.91274 1.90179 0.854845 1.85158 0.80774C1.7997 0.760765 1.73908 0.724468 1.67317 0.700922C1.6056 0.675085 1.53491 0.658273 1.46294 0.650921C1.38746 0.641716 1.31115 0.641716 1.23567 0.650921C1.16501 0.660452 1.09678 0.683196 1.03453 0.717966C0.973601 0.752159 0.921767 0.800486 0.883396 0.858878C0.84081 0.927655 0.815113 1.00554 0.808399 1.08615C0.797603 1.16664 0.806571 1.24855 0.834534 1.32479C0.858191 1.3899 0.897167 1.44836 0.94817 1.49524C1.00223 1.54184 1.0642 1.5784 1.13113 1.60319C1.20234 1.62864 1.27636 1.64543 1.35158 1.6532C1.42365 1.66259 1.49666 1.66221 1.56862 1.65206Z" fill="#F9F9FA"/>
</svg>
