<svg width="3" height="3" viewBox="0 0 3 3" fill="none" xmlns="http://www.w3.org/2000/svg">
<path d="M2.77543 2.39859C2.67258 2.58097 2.50886 2.72136 2.31293 2.79518C2.1267 2.89208 1.91251 2.92102 1.70725 2.877C1.51768 2.81319 1.36805 2.66565 1.30157 2.477L0.860657 1.47927L1.23452 1.31223L1.67997 2.30882C1.69854 2.35213 1.72178 2.39328 1.74929 2.43154C1.77487 2.46912 1.80918 2.49993 1.84929 2.52132C1.89312 2.54272 1.94145 2.55325 1.9902 2.552C2.05816 2.54846 2.12468 2.53106 2.18566 2.50086C2.29096 2.46829 2.37763 2.39277 2.42429 2.29291C2.44791 2.19202 2.43334 2.08596 2.38338 1.99518L1.93793 0.998589L2.31293 0.831543L2.75839 1.82814C2.85291 2.00517 2.85922 2.21622 2.77543 2.39859Z" fill="#F9F9FA"/>
</svg>
