<svg width="3" height="3" viewBox="0 0 3 3" fill="none" xmlns="http://www.w3.org/2000/svg">
<path d="M2.60045 1.33738C2.64581 1.42807 2.67431 1.52626 2.68454 1.62715C2.69077 1.70684 2.68032 1.78695 2.65386 1.86238C2.62989 1.92931 2.59104 1.98993 2.54022 2.03965C2.48945 2.08959 2.43068 2.13069 2.36636 2.16124C2.30203 2.19073 2.23332 2.20954 2.16295 2.21692C2.09151 2.22509 2.01915 2.21653 1.95158 2.19192C1.87675 2.16462 1.80885 2.12117 1.75272 2.06465C1.68107 1.99289 1.62328 1.90852 1.58226 1.81578L1.39931 1.42601L0.831128 1.69306L0.656128 1.32147L2.24704 0.577148L2.60045 1.33738ZM1.80499 1.58624C1.82438 1.62579 1.8468 1.66378 1.87204 1.69988C1.89395 1.734 1.92209 1.76368 1.95499 1.78737C1.98594 1.80983 2.02254 1.82321 2.06067 1.82601C2.10767 1.82792 2.15433 1.81734 2.1959 1.79533C2.24093 1.77854 2.28031 1.74939 2.30954 1.71124C2.33143 1.68 2.34476 1.64356 2.34817 1.60556C2.35094 1.56483 2.34592 1.52395 2.3334 1.4851C2.3205 1.44161 2.30455 1.39908 2.28567 1.35783L2.1459 1.07829L1.66976 1.30556L1.80499 1.58624Z" fill="#F9F9FA"/>
</svg>
