<svg width="3" height="3" viewBox="0 0 3 3" fill="none" xmlns="http://www.w3.org/2000/svg">
<path d="M2.24702 0.662212C2.35322 0.708565 2.44876 0.776254 2.5277 0.861076C2.60645 0.947921 2.66572 1.05059 2.70156 1.16221C2.77969 1.41622 2.76148 1.6901 2.65043 1.93153C2.59856 2.03701 2.52498 2.13034 2.43452 2.20539C2.34584 2.27837 2.24345 2.33285 2.13338 2.36562C2.01354 2.40027 1.88842 2.41298 1.76406 2.40312C1.64227 2.39665 1.52277 2.36735 1.41179 2.31676C1.19615 2.22338 1.03072 2.04224 0.957245 1.81903C0.917264 1.69284 0.90259 1.56 0.914063 1.42812C0.920393 1.29653 0.952841 1.16751 1.00952 1.04858C1.10949 0.836306 1.29635 0.677619 1.52202 0.613349C1.6387 0.578442 1.76081 0.565345 1.88224 0.574713C2.00817 0.581296 2.13181 0.610953 2.24702 0.662212ZM1.64361 0.997439C1.57468 1.00932 1.5087 1.0344 1.44929 1.0713C1.39044 1.1084 1.34134 1.15905 1.30611 1.21903C1.26575 1.28827 1.24274 1.36625 1.23906 1.4463C1.23152 1.52752 1.2436 1.60936 1.27429 1.68494C1.3015 1.74885 1.34358 1.80534 1.39702 1.84971C1.45109 1.89375 1.51269 1.92763 1.57884 1.94971C1.64806 1.97242 1.71981 1.98654 1.79247 1.99176C1.86846 1.99692 1.94479 1.99272 2.01974 1.97926C2.08972 1.96667 2.15675 1.94124 2.21747 1.90426C2.27587 1.86806 2.32492 1.81862 2.36065 1.75994C2.40029 1.69046 2.42288 1.61257 2.42656 1.53267C2.43511 1.4519 2.4234 1.37027 2.39247 1.29517C2.36485 1.23056 2.32195 1.17363 2.26747 1.12926C2.21205 1.08471 2.14887 1.05081 2.08111 1.02926C2.00736 1.00599 1.93103 0.991868 1.85384 0.987212C1.78361 0.981387 1.71293 0.984826 1.64361 0.997439Z" fill="#F9F9FA"/>
</svg>
