<svg width="2" height="2" viewBox="0 0 2 2" fill="none" xmlns="http://www.w3.org/2000/svg">
<path d="M0.529986 0.789629C0.500391 0.821984 0.478963 0.860946 0.467487 0.903266C0.455943 0.950098 0.453626 0.998731 0.460668 1.04645C0.466816 1.09882 0.479019 1.1503 0.497032 1.19985C0.511127 1.23642 0.527445 1.2721 0.545895 1.30667C0.564864 1.34291 0.588978 1.37621 0.617487 1.40554C0.644542 1.43287 0.677072 1.45417 0.712941 1.46804C0.749621 1.48151 0.789897 1.48151 0.826577 1.46804C0.868216 1.45485 0.901642 1.42351 0.917487 1.38281C0.935401 1.33686 0.943903 1.28779 0.942487 1.23849C0.942054 1.17727 0.937498 1.11615 0.92885 1.05554C0.919759 0.988493 0.911805 0.919175 0.904987 0.849856C0.896158 0.779349 0.891227 0.708408 0.890214 0.637357C0.889618 0.570624 0.898027 0.504112 0.915214 0.439627C0.932574 0.377946 0.962781 0.320634 1.00385 0.271448C1.05193 0.219191 1.11256 0.180077 1.17999 0.157811C1.257 0.128018 1.34068 0.119769 1.42203 0.133949C1.498 0.149515 1.56971 0.181297 1.63226 0.227128C1.69902 0.275787 1.75671 0.335788 1.80271 0.4044C1.8503 0.474903 1.8885 0.551303 1.91635 0.631673C1.9497 0.719983 1.97258 0.811899 1.98453 0.905537C1.99725 0.991407 1.99378 1.0789 1.9743 1.16349C1.95653 1.24333 1.9199 1.31775 1.86749 1.38054C1.80769 1.44816 1.73132 1.49907 1.6459 1.52827L1.50726 1.15554C1.5509 1.13894 1.58989 1.11204 1.6209 1.07713C1.64556 1.04771 1.66237 1.01253 1.66976 0.974857C1.67658 0.934614 1.67658 0.893508 1.66976 0.853265C1.66131 0.807163 1.64876 0.761908 1.63226 0.718038C1.62042 0.686949 1.60598 0.656917 1.58908 0.628264C1.5722 0.600876 1.55066 0.576647 1.52544 0.556673C1.50176 0.5372 1.47428 0.522881 1.44476 0.514628C1.41248 0.507811 1.3789 0.510577 1.34817 0.522583C1.32005 0.531532 1.29516 0.548518 1.27658 0.571446C1.25909 0.601074 1.24969 0.634774 1.2493 0.669175C1.24736 0.728794 1.2504 0.788472 1.2584 0.847585C1.26635 0.921449 1.27771 1.01804 1.29135 1.13622C1.29817 1.17145 1.30271 1.22145 1.3084 1.28508C1.31384 1.35243 1.30925 1.42022 1.29476 1.48622C1.27998 1.55845 1.25059 1.6269 1.2084 1.68736C1.15661 1.75554 1.08525 1.80628 1.00385 1.83281C0.856906 1.89073 0.691048 1.87423 0.558395 1.78849C0.482961 1.73848 0.417459 1.6749 0.365214 1.60099C0.299161 1.509 0.246726 1.40796 0.209532 1.30099C0.174063 1.20654 0.1504 1.10807 0.139078 1.00781C0.127554 0.914806 0.132944 0.820487 0.154987 0.729402C0.176077 0.639885 0.218581 0.556825 0.27885 0.487356C0.344249 0.414857 0.427803 0.361116 0.520896 0.331675L0.658396 0.703265C0.608729 0.720231 0.564429 0.750026 0.529986 0.789629Z" fill="#F9F9FA"/>
</svg>
