<svg width="2" height="3" viewBox="0 0 2 3" fill="none" xmlns="http://www.w3.org/2000/svg">
<path d="M1.47429 2.17247C1.50762 2.14282 1.53534 2.1074 1.55611 2.06793C1.57885 2.02688 1.5946 1.98233 1.6027 1.93611C1.61063 1.88757 1.61063 1.83806 1.6027 1.78952C1.59335 1.70792 1.56408 1.62987 1.51748 1.56224C1.47674 1.50588 1.42292 1.46026 1.36066 1.42929C1.29667 1.39723 1.22734 1.3772 1.15611 1.3702C1.08039 1.36343 1.00413 1.36533 0.928839 1.37588C0.85697 1.38687 0.786739 1.40672 0.719749 1.43497C0.655708 1.46197 0.597163 1.50048 0.547021 1.54861C0.495371 1.59674 0.456347 1.65684 0.433385 1.72361C0.40811 1.80094 0.40264 1.88338 0.417476 1.96338C0.426956 2.07195 0.481328 2.17163 0.567476 2.23838C0.655729 2.29928 0.761495 2.32962 0.868612 2.32475L0.926567 2.71679C0.822928 2.72364 0.718914 2.71131 0.619748 2.68042C0.528299 2.65201 0.443615 2.60522 0.370885 2.54293C0.297421 2.47957 0.23718 2.40233 0.193612 2.31565C0.145146 2.22013 0.112889 2.11721 0.0981576 2.01111C0.081298 1.8816 0.0893984 1.75007 0.122021 1.62361C0.148635 1.50962 0.199399 1.40266 0.270885 1.30997C0.341646 1.21991 0.429745 1.14494 0.529976 1.08952C0.635888 1.03152 0.751359 0.993033 0.870885 0.97588C0.993841 0.956205 1.11934 0.958901 1.24134 0.983835C1.35507 1.00703 1.46292 1.05303 1.55838 1.11906C1.65457 1.1872 1.73546 1.27468 1.79588 1.37588C1.86351 1.48643 1.90869 1.60923 1.92884 1.73724C1.94417 1.83475 1.94417 1.93405 1.92884 2.03156C1.91604 2.12251 1.88759 2.21055 1.84475 2.29179C1.80264 2.37099 1.74506 2.44093 1.67543 2.49747C1.6008 2.55783 1.51395 2.60126 1.42088 2.62474L1.36066 2.23724C1.40255 2.22361 1.44121 2.20157 1.47429 2.17247Z" fill="#F9F9FA"/>
</svg>
