<svg width="3" height="3" viewBox="0 0 3 3" fill="none" xmlns="http://www.w3.org/2000/svg">
<path d="M0.281125 0.695331C0.296373 0.619727 0.324838 0.547406 0.365215 0.481694C0.401288 0.424194 0.447949 0.374063 0.502717 0.333964C0.554558 0.297177 0.613315 0.271279 0.675443 0.25783C0.738794 0.244786 0.804139 0.244786 0.867489 0.25783C0.959914 0.274082 1.04582 0.316249 1.11522 0.379422C1.18397 0.448697 1.22724 0.539221 1.23794 0.636237C1.27651 0.554675 1.34735 0.492896 1.4334 0.465783C1.47497 0.452856 1.51827 0.446344 1.56181 0.446467C1.6066 0.445873 1.65139 0.44815 1.6959 0.453285L1.79249 0.469192L1.90612 0.483965C1.94395 0.486783 1.98193 0.486783 2.01976 0.483965C2.05321 0.482383 2.08602 0.474277 2.11635 0.460102L2.03226 0.861239C1.96485 0.871513 1.89627 0.871513 1.82885 0.861239C1.75272 0.851011 1.67885 0.843057 1.60726 0.839647C1.53258 0.829714 1.45675 0.845762 1.39249 0.885101C1.33167 0.936967 1.29303 1.01017 1.28453 1.08965L1.20044 1.49079L1.87203 1.63056L1.78794 2.03169L0.0697632 1.67374L0.281125 0.695331ZM1.02885 0.999875C1.05157 0.928727 1.04835 0.851828 1.01976 0.782829C0.982811 0.720321 0.919065 0.678382 0.847036 0.669193C0.7801 0.648995 0.707591 0.66073 0.650443 0.701011C0.596242 0.75304 0.561374 0.821975 0.55158 0.896466L0.45158 1.33965L0.935672 1.43965L1.02885 0.999875Z" fill="#F9F9FA"/>
</svg>
