<svg width="5" height="6" viewBox="0 0 5 6" fill="none" xmlns="http://www.w3.org/2000/svg">
<path d="M1.32089 4.4317C1.39217 4.52063 1.48375 4.59117 1.58794 4.63738C1.69587 4.684 1.81139 4.71057 1.92885 4.71579C2.05864 4.72245 2.18876 4.71329 2.31635 4.68852C2.41085 4.66981 2.50389 4.64437 2.59476 4.61238C2.69038 4.5804 2.78075 4.53445 2.86294 4.47602C2.94036 4.42083 3.00443 4.349 3.05044 4.26579C3.09634 4.17733 3.10923 4.0754 3.0868 3.97829C3.07 3.86989 3.00752 3.7739 2.91521 3.71466C2.81089 3.65122 2.69501 3.60912 2.5743 3.59079C2.42412 3.56444 2.27218 3.54924 2.11975 3.54534C1.95385 3.54534 1.78453 3.52943 1.6118 3.51693C1.43776 3.50917 1.26434 3.49096 1.09248 3.46238C0.928726 3.4363 0.76954 3.38693 0.619755 3.31579C0.475701 3.2473 0.348458 3.14799 0.247028 3.02488C0.135249 2.88409 0.0613175 2.71706 0.0322555 2.53966C-0.0120609 2.33678 0.000523936 2.12561 0.06862 1.92943C0.134753 1.74688 0.239837 1.58091 0.376574 1.44307C0.520242 1.29973 0.687442 1.18212 0.870892 1.09534C1.05837 1.00538 1.25656 0.939694 1.46067 0.899883C1.68808 0.85501 1.91994 0.836706 2.15157 0.845338C2.36616 0.851885 2.57769 0.898119 2.77544 0.981701C2.96302 1.06074 3.12899 1.18347 3.25953 1.33966C3.40135 1.51743 3.49489 1.72879 3.53112 1.95329L2.5743 2.13738C2.54822 2.02584 2.49777 1.92145 2.42657 1.8317C2.36606 1.75834 2.28784 1.70163 2.1993 1.66693C2.10533 1.63295 2.00604 1.61602 1.90612 1.61693C1.79162 1.6167 1.6774 1.62812 1.56521 1.65102C1.48471 1.66683 1.40593 1.69043 1.32998 1.72147C1.2548 1.7518 1.18585 1.79572 1.12657 1.85102C1.07062 1.90238 1.02576 1.96464 0.994756 2.03397C0.964092 2.11169 0.957752 2.19689 0.976573 2.27829C0.987664 2.35089 1.01875 2.41896 1.06635 2.47488C1.12976 2.5336 1.2086 2.57302 1.29362 2.58852C1.43687 2.6193 1.58246 2.63793 1.72885 2.6442L2.44475 2.68284C2.53225 2.68284 2.65385 2.68966 2.81066 2.70329C2.97664 2.7178 3.13967 2.75607 3.29476 2.81693C3.46513 2.88543 3.61978 2.98789 3.7493 3.11807C3.89725 3.27479 3.99362 3.47309 4.02544 3.68625C4.06464 3.87717 4.06036 4.07447 4.01294 4.26352C3.96412 4.45248 3.87147 4.62728 3.74248 4.77375C3.59294 4.93976 3.41324 5.07588 3.21294 5.17488C2.9636 5.29925 2.69759 5.3869 2.42317 5.43511C2.18041 5.48271 1.93262 5.4995 1.68566 5.48511C1.45428 5.47479 1.22687 5.42121 1.01521 5.32716C0.813196 5.23735 0.635542 5.1006 0.497028 4.92829C0.346665 4.73474 0.248461 4.50586 0.211801 4.26352L1.16976 4.07829C1.18937 4.207 1.24138 4.32861 1.32089 4.4317Z" fill="white"/>
</svg>
