<svg width="6" height="6" viewBox="0 0 6 6" fill="none" xmlns="http://www.w3.org/2000/svg">
<path d="M0.99358 3.05542C0.936792 2.77073 0.936792 2.47762 0.99358 2.19292C1.0511 1.9055 1.17053 1.63406 1.34358 1.39747C1.74143 0.877799 2.32113 0.527865 2.96631 0.417924C3.25452 0.376847 3.54819 0.397768 3.82767 0.479288C4.10546 0.562801 4.36388 0.7007 4.5879 0.88497C4.83003 1.08408 5.0354 1.32407 5.19472 1.59406C5.35618 1.85587 5.46933 2.14454 5.52881 2.44633C5.58624 2.72752 5.58624 3.01742 5.52881 3.29861C5.46779 3.58078 5.34773 3.84684 5.17653 4.07929C4.77621 4.59618 4.19768 4.9454 3.55381 5.05883C3.26743 5.10274 2.97499 5.08531 2.69585 5.0077C2.41975 4.92848 2.16265 4.79393 1.94017 4.61224C1.70139 4.41847 1.49899 4.18375 1.34244 3.91906C1.17667 3.65373 1.0586 3.36145 0.99358 3.05542ZM2.54244 3.82929C2.66642 3.95261 2.81152 4.05268 2.97085 4.12474C3.12955 4.19422 3.30248 4.22499 3.4754 4.21451C3.87653 4.17123 4.23821 3.95339 4.46404 3.61906C4.55342 3.47067 4.60638 3.30322 4.61858 3.13042C4.62947 2.95579 4.60868 2.78062 4.55722 2.61338C4.50286 2.43779 4.42649 2.26979 4.32994 2.11338C4.23233 1.95048 4.11517 1.80012 3.98108 1.66565C3.85599 1.53791 3.70846 1.43429 3.54585 1.35997C3.38733 1.28842 3.21379 1.25644 3.04017 1.26679C2.84069 1.2823 2.64818 1.34712 2.47994 1.45542C2.30609 1.55405 2.15901 1.69372 2.05153 1.86224C1.96228 2.01144 1.90971 2.17968 1.89813 2.35315C1.88864 2.53196 1.91174 2.71101 1.96631 2.88156C2.02336 3.06213 2.10236 3.23501 2.20153 3.39633C2.2959 3.55484 2.4105 3.70038 2.54244 3.82929Z" fill="white"/>
</svg>
