<svg width="3" height="3" viewBox="0 0 3 3" fill="none" xmlns="http://www.w3.org/2000/svg">
<path d="M1.89359 1.88626C1.87916 1.98665 1.84683 2.08365 1.79814 2.17262C1.75843 2.24177 1.70461 2.30178 1.64018 2.34876C1.58216 2.38988 1.51583 2.4178 1.44587 2.43058C1.37554 2.44251 1.3037 2.44251 1.23337 2.43058C1.16371 2.41922 1.09647 2.39617 1.0345 2.36239C0.971121 2.32815 0.916337 2.27997 0.874275 2.22149C0.827572 2.1569 0.795749 2.08278 0.781094 2.00444C0.762303 1.90494 0.762303 1.8028 0.781094 1.7033L0.850411 1.27717L0.228821 1.17603L0.295866 0.771484L2.02768 1.05558L1.89359 1.88626ZM1.09814 1.64194C1.0907 1.68665 1.08652 1.73185 1.08564 1.77717C1.08533 1.81589 1.09187 1.85436 1.10496 1.8908C1.11849 1.92672 1.14122 1.95846 1.17087 1.98285C1.20854 2.01068 1.25278 2.0283 1.29928 2.03398C1.34536 2.04388 1.39326 2.04113 1.43791 2.02603C1.47378 2.01296 1.50554 1.99061 1.52996 1.96126C1.55496 1.92898 1.57383 1.89239 1.58564 1.8533C1.59931 1.81016 1.60994 1.76611 1.61746 1.72148L1.66973 1.40671L1.15041 1.32148L1.09814 1.64194Z" fill="#F9F9FA"/>
</svg>
